<svg width="20" height="20" viewBox="0 0 20 20" fill="none" xmlns="http://www.w3.org/2000/svg">
<path d="M10 0C4.5 0 0 4.5 0 10C0 15.5 4.5 20 10 20C15.5 20 20 15.5 20 10C20 4.5 15.5 0 10 0ZM12.4167 14.3333L12 13.75C12.75 13.5 13.5833 13 14.3333 12.1667C13.5 12.8333 12.1667 13.5 10 13.5C7.91667 13.5 6.58333 12.8333 5.66667 12.1667C6.41667 13 7.25 13.5 8 13.75L7.58333 14.3333C7.58333 14.3333 5.5 14.3333 4.08333 12.75C4.33333 8.83333 5.66667 6.83333 5.66667 6.83333C5.66667 6.83333 6.83333 5.83333 8.41667 5.66667L8.58333 5.91667C7.33333 6.25 6.58333 6.75 6 7.33333C7.08333 6.75 8.16667 6.25 10 6.25C11.8333 6.25 12.9167 6.75 14.0833 7.33333C13.4167 6.75 12.8333 6.33333 11.5 6L11.6667 5.66667C13.1667 5.75 14.3333 6.75 14.3333 6.75C14.3333 6.75 15.75 8.75 15.9167 12.6667C14.5833 14.3333 12.4167 14.3333 12.4167 14.3333ZM9.25 10.5C9.25 11.0833 8.83333 11.5 8.41667 11.5C7.91667 11.5 7.58333 11.0833 7.58333 10.5C7.58333 9.91667 8 9.5 8.41667 9.5C8.91667 9.5 9.25 9.91667 9.25 10.5ZM12.5 10.5C12.5 11.0833 12.0833 11.5 11.6667 11.5C11.1667 11.5 10.8333 11.0833 10.8333 10.5C10.8333 9.91667 11.25 9.5 11.6667 9.5C12.0833 9.5 12.5 9.91667 12.5 10.5Z" fill="white"/>
</svg>
