<svg width="14" height="10" viewBox="0 0 14 10" fill="none" xmlns="http://www.w3.org/2000/svg">
<path d="M13.6138 1.30692C13.2138 0.906924 12.5138 0.906924 12.2138 1.40692L6.91384 6.60692L1.71384 1.30692C1.31384 0.906924 0.713844 0.906924 0.313844 1.20692C-0.0861561 1.60692 -0.0861561 2.20692 0.213844 2.60692L6.21384 8.60692C6.31384 8.70692 6.31384 8.70692 6.41384 8.70692C6.41384 8.70692 6.51384 8.70692 6.51384 8.80692C6.61384 9.00692 6.81384 9.00692 6.91384 9.00692C7.01384 9.00692 7.21384 9.00692 7.31384 8.90692C7.31384 8.90692 7.41384 8.90692 7.41384 8.80692C7.51384 8.80692 7.61384 8.70692 7.61384 8.70692L13.6138 2.70692C14.0138 2.30692 14.0138 1.60692 13.6138 1.30692Z" fill="white"/>
</svg>
