<svg width="38" height="38" viewBox="0 0 38 38" fill="none" xmlns="http://www.w3.org/2000/svg">
<path d="M30 0H8C3.6 0 0 3.6 0 8V30C0 34.4 3.6 38 8 38H30C34.4 38 38 34.4 38 30V8C38 3.6 34.4 0 30 0ZM19 32C11.8 32 6 26.2 6 19C6 11.8 11.8 6 19 6C26.2 6 32 11.8 32 19C32 26.2 26.2 32 19 32ZM22 15C22 16.7 20.7 18 19 18C17.3 18 16 16.7 16 15C16 13.3 17.3 12 19 12C20.7 12 22 13.3 22 15ZM27.3 26.2C25.3 28.5 22.3 30 19 30C15.7 30 12.7 28.5 10.7 26.2C12.8 24.2 15.6 23 18.5 23H19.4C22.4 23 25.2 24.2 27.3 26.2ZM19 8C12.9 8 8 12.9 8 19C8 21 8.6 22.9 9.5 24.5C12 22.2 15.2 20.9 18.5 21H19.4C22.8 21 26 22.3 28.4 24.5C29.4 22.9 29.9 21 29.9 19C30 12.9 25.1 8 19 8ZM19 20C16.2 20 14 17.8 14 15C14 12.2 16.2 10 19 10C21.8 10 24 12.2 24 15C24 17.8 21.8 20 19 20Z" fill="white"/>
</svg>
