<svg width="20" height="20" viewBox="0 0 20 20" fill="none" xmlns="http://www.w3.org/2000/svg">
<path fill-rule="evenodd" clip-rule="evenodd" d="M0 10C0 4.45833 4.45833 0 10 0C15.5417 0 20 4.45833 20 10C20 15.5417 15.5417 20 10 20C4.45833 20 0 15.5417 0 10ZM10 4.66667C8.54167 4.66667 8.375 4.66667 7.79167 4.70833C7.20833 4.75 6.83333 4.83333 6.5 4.95833C6.16667 5.08333 5.83333 5.29167 5.54167 5.58333C5.25 5.875 5.08333 6.16667 4.91667 6.54167C4.79167 6.875 4.70833 7.25 4.66667 7.83333C4.625 8.41667 4.625 8.58333 4.625 10.0417C4.625 11.5 4.625 11.6667 4.66667 12.25C4.70833 12.8333 4.79167 13.2083 4.91667 13.5417C5.04167 13.875 5.25 14.2083 5.54167 14.5C5.83333 14.7917 6.125 15 6.5 15.125C6.83333 15.25 7.20833 15.3333 7.79167 15.375C8.375 15.4167 8.54167 15.4167 10 15.4167C11.4583 15.4167 11.625 15.4167 12.2083 15.375C12.7917 15.3333 13.1667 15.25 13.5 15.125C13.8333 15 14.1667 14.7917 14.4583 14.5C14.75 14.2083 14.9167 13.9167 15.0833 13.5417C15.2083 13.2083 15.2917 12.8333 15.3333 12.25C15.375 11.6667 15.375 11.5 15.375 10.0417C15.375 8.58333 15.375 8.41667 15.3333 7.83333C15.2917 7.25 15.2083 6.875 15.0833 6.54167C14.9583 6.20833 14.75 5.875 14.4583 5.58333C14.1667 5.29167 13.875 5.125 13.5 4.95833C13.1667 4.83333 12.7917 4.75 12.2083 4.70833C11.625 4.66667 11.4583 4.66667 10 4.66667ZM9.54167 5.625C9.66667 5.625 9.83333 5.625 10 5.625C11.4167 5.625 11.5833 5.625 12.1667 5.66667C12.6667 5.70833 12.9583 5.79167 13.1667 5.83333C13.4167 5.91667 13.5833 6.04167 13.7917 6.25C13.9583 6.41667 14.0833 6.625 14.2083 6.875C14.2917 7.08333 14.375 7.33333 14.375 7.875C14.4167 8.41667 14.4167 8.625 14.4167 10.0417C14.4167 11.4583 14.4167 11.625 14.375 12.2083C14.3333 12.7083 14.25 13 14.2083 13.2083C14.125 13.4583 14 13.625 13.7917 13.8333C13.625 14 13.4167 14.125 13.1667 14.25C12.9583 14.3333 12.7083 14.4167 12.1667 14.4167C11.625 14.4583 11.4167 14.4583 10 14.4583C8.58333 14.4583 8.41667 14.4583 7.83333 14.4167C7.33333 14.375 7.04167 14.2917 6.83333 14.25C6.58333 14.1667 6.41667 14.0417 6.20833 13.8333C6.04167 13.6667 5.91667 13.4583 5.79167 13.2083C5.70833 13 5.625 12.75 5.625 12.2083C5.58333 11.6667 5.58333 11.4583 5.58333 10.0417C5.58333 8.625 5.58333 8.45833 5.625 7.875C5.66667 7.375 5.75 7.08333 5.79167 6.875C5.875 6.625 6 6.45833 6.20833 6.25C6.375 6.08333 6.58333 5.95833 6.83333 5.83333C7.04167 5.75 7.29167 5.66667 7.83333 5.66667C8.33333 5.625 8.54167 5.625 9.54167 5.625ZM12.8333 6.5C12.5 6.5 12.2083 6.79167 12.2083 7.125C12.2083 7.45833 12.5 7.75 12.8333 7.75C13.1667 7.75 13.4583 7.45833 13.4583 7.125C13.4583 6.79167 13.2083 6.5 12.8333 6.5ZM10 7.25C8.5 7.25 7.25 8.45833 7.25 10C7.25 11.5 8.45833 12.75 10 12.75C11.5417 12.75 12.75 11.5417 12.75 10C12.75 8.5 11.5 7.25 10 7.25ZM10 8.20833C11 8.20833 11.7917 9 11.7917 10C11.7917 11 11 11.7917 10 11.7917C9 11.7917 8.20833 11 8.20833 10C8.20833 9 9 8.20833 10 8.20833Z" fill="white"/>
</svg>
