<svg width="20" height="20" viewBox="0 0 20 20" fill="none" xmlns="http://www.w3.org/2000/svg">
<path d="M10 0C4.47415 0 0 4.47415 0 10C0 15.5258 4.47415 20 10 20C15.5258 20 20 15.5258 20 10C20 4.47415 15.5258 0 10 0ZM14.9376 8.43137C14.9376 8.53832 14.9376 8.64528 14.9376 8.7344C14.9376 11.8895 12.5312 15.5437 8.12834 15.5437C6.77362 15.5437 5.52585 15.1515 4.45633 14.4742C4.63458 14.492 4.83066 14.5098 5.02674 14.5098C6.14973 14.5098 7.1836 14.1355 8.00357 13.4938C6.95187 13.4759 6.07843 12.7807 5.7754 11.836C5.918 11.8717 6.07843 11.8717 6.22103 11.8717C6.43494 11.8717 6.64884 11.836 6.84492 11.7825C5.75758 11.5686 4.91979 10.5882 4.91979 9.44742C4.91979 9.42959 4.91979 9.42959 4.91979 9.41177C5.24064 9.59002 5.61497 9.69697 6.00713 9.7148C5.36542 9.28699 4.93761 8.55615 4.93761 7.71836C4.93761 7.27273 5.06239 6.86275 5.25847 6.52406C6.43494 7.96791 8.19964 8.93048 10.1783 9.01961C10.1426 8.84136 10.1248 8.6631 10.1248 8.46702C10.1248 7.14795 11.1943 6.07843 12.5134 6.07843C13.2086 6.07843 13.8146 6.36364 14.2603 6.82709C14.8128 6.72014 15.3119 6.52406 15.7754 6.23886C15.5971 6.79144 15.2228 7.27273 14.7237 7.55793C15.205 7.50446 15.6685 7.37968 16.0963 7.1836C15.8111 7.66488 15.4011 8.09269 14.9376 8.43137Z" fill="white"/>
</svg>
